<svg xmlns="http://www.w3.org/2000/svg" xmlns:xlink="http://www.w3.org/1999/xlink" viewBox="0 0 833.15 1019.98"><defs><style>.cls-1{fill:url(#linear-gradient);}</style><linearGradient id="linear-gradient" x1="-80.95" y1="867.27" x2="589.05" y2="-0.22" gradientUnits="userSpaceOnUse"><stop offset="0" stop-color="#941d80"/><stop offset="1" stop-color="#29265b"/></linearGradient></defs><g id="Capa_2" data-name="Capa 2"><g id="Logo"><path class="cls-1" d="M833.15,340.55,755.05,294c-13-32.3-32.29-54.11-49.55-73.36l-1.94-2.19c-41.1-45.94-86.71-67.48-135.74-64.06C506,158.7,444,203.27,388,283.23c-11.79-4.81-23.63-9.43-35.43-14C258.1,232.53,168.82,197.86,117.35,57.47L96.28,0,88.93,60.78c-7.41,61.17-8.68,114-5.24,160.09-19.49-22.65-35.91-49.44-49.52-81.25L12.61,89.31,6.05,143.65C-32.18,459.82,118.11,528,250.71,588.19l.24.1c-13.21,50.06-20.46,118.9-27.48,185.71-3.35,31.91-7.15,68.1-11.93,101.62-6.38,1-12.63,2-18.75,2.92-52.23,8-90,13.77-100.62,39.21-8.79,21,7.36,43.35,12.68,50.7,16.43,22.79,40.55,51.53,67.31,51.53a36.69,36.69,0,0,0,9.58-1.27c29.64-7.89,44.65-49.17,55.74-117.59,23.29-4.12,47.75-9.38,72.23-17.14C520.27,817.18,560.47,669.66,596,539.52c24.87-91.22,46.71-171.23,124.14-208.74C742.36,322.28,833.15,340.55,833.15,340.55Zm-659,649.74c-6.95,1.85-22.63-7.4-45.48-39-11.23-15.58-9.79-21.16-9.38-22.12,4.28-10.21,45.13-16.48,77.94-21.5l9.48-1.46C198.84,951.38,188.52,986.46,174.17,990.29ZM30.66,197.54a294.06,294.06,0,0,0,58.6,70.76c25.56,157.38,113.31,225.24,193.27,286.93,17.36,13.39,34.19,26.39,49.83,39.88-22.33-12.3-46-23.05-69.5-33.73C141.17,506.17,15.58,449.2,30.66,197.54Zm270.16,658.4A509.4,509.4,0,0,1,242,870.39c3.72-27.73,7.12-58.93,10.74-93.32,6.66-63.51,13.54-128.88,25.39-176.32,82.43,38.5,148.78,79.76,147.29,192.29C393.06,818.06,352.57,839.53,300.82,855.94Zm153.49-88.19c-7-122.5-78.44-177.68-153.81-235.81-100.42-77.47-204-157.4-187.6-411.76,58,110,144.78,143.73,229.07,176.47C436.1,333.22,525,367.79,574,508.29q-3.22,11.67-6.44,23.48C544.74,615.5,521.37,701.07,454.31,767.75ZM587.57,462.8c-42.44-94.38-105.34-137.42-171.92-167.71,49.18-68.43,103.53-107.82,154.23-111.37,39.41-2.81,77,15.51,111.75,54.34l2,2.18c14.71,16.42,29.84,33.33,40.79,56.62C645.1,326.94,611.34,389.84,587.57,462.8Z"/></g></g></svg>